<mxfile host="app.diagrams.net" agent="Mozilla/5.0 (Windows NT 10.0; Win64; x64) AppleWebKit/537.36 (KHTML, like Gecko) Chrome/129.0.0.0 Safari/537.36" version="24.7.17">
  <diagram name="Page-1" id="1KpQt4oFNFmE3ei3up1I">
    <mxGraphModel dx="1434" dy="780" grid="1" gridSize="10" guides="1" tooltips="1" connect="1" arrows="1" fold="1" page="1" pageScale="1" pageWidth="827" pageHeight="1169" math="0" shadow="0">
      <root>
        <mxCell id="0" />
        <mxCell id="1" parent="0" />
        <mxCell id="DfBPraIemsKcxIyx9plv-1" value="" style="rounded=0;whiteSpace=wrap;html=1;" parent="1" vertex="1">
          <mxGeometry x="140" y="100" width="240" height="250" as="geometry" />
        </mxCell>
        <mxCell id="DfBPraIemsKcxIyx9plv-2" value="&lt;b&gt;Bank&lt;/b&gt;" style="text;html=1;align=center;verticalAlign=middle;whiteSpace=wrap;rounded=0;" parent="1" vertex="1">
          <mxGeometry x="204" y="110" width="130" height="30" as="geometry" />
        </mxCell>
        <mxCell id="DfBPraIemsKcxIyx9plv-3" value="firstname" style="rounded=0;whiteSpace=wrap;html=1;" parent="1" vertex="1">
          <mxGeometry x="170" y="170" width="80" height="20" as="geometry" />
        </mxCell>
        <mxCell id="DfBPraIemsKcxIyx9plv-4" value="email" style="rounded=0;whiteSpace=wrap;html=1;" parent="1" vertex="1">
          <mxGeometry x="170" y="230" width="180" height="20" as="geometry" />
        </mxCell>
        <mxCell id="DfBPraIemsKcxIyx9plv-5" value="lastname" style="rounded=0;whiteSpace=wrap;html=1;" parent="1" vertex="1">
          <mxGeometry x="270" y="170" width="80" height="20" as="geometry" />
        </mxCell>
        <mxCell id="DfBPraIemsKcxIyx9plv-6" value="number" style="rounded=0;whiteSpace=wrap;html=1;" parent="1" vertex="1">
          <mxGeometry x="170" y="260" width="80" height="20" as="geometry" />
        </mxCell>
        <mxCell id="DfBPraIemsKcxIyx9plv-7" value="type" style="rounded=0;whiteSpace=wrap;html=1;" parent="1" vertex="1">
          <mxGeometry x="270" y="260" width="80" height="20" as="geometry" />
        </mxCell>
        <mxCell id="DfBPraIemsKcxIyx9plv-8" value="" style="triangle;whiteSpace=wrap;html=1;rotation=90;" parent="1" vertex="1">
          <mxGeometry x="334" y="265" width="10" height="10" as="geometry" />
        </mxCell>
        <mxCell id="DfBPraIemsKcxIyx9plv-9" value="Submit" style="rounded=1;whiteSpace=wrap;html=1;" parent="1" vertex="1">
          <mxGeometry x="200" y="300" width="120" height="20" as="geometry" />
        </mxCell>
        <mxCell id="DfBPraIemsKcxIyx9plv-11" value="Registeration Form" style="text;html=1;align=center;verticalAlign=middle;whiteSpace=wrap;rounded=0;" parent="1" vertex="1">
          <mxGeometry x="198.5" y="140" width="141" height="30" as="geometry" />
        </mxCell>
        <mxCell id="DfBPraIemsKcxIyx9plv-13" value="" style="rounded=0;whiteSpace=wrap;html=1;" parent="1" vertex="1">
          <mxGeometry x="470" y="100" width="240" height="250" as="geometry" />
        </mxCell>
        <mxCell id="DfBPraIemsKcxIyx9plv-14" value="&lt;b&gt;Bank&lt;/b&gt;" style="text;html=1;align=center;verticalAlign=middle;whiteSpace=wrap;rounded=0;" parent="1" vertex="1">
          <mxGeometry x="525" y="120" width="130" height="30" as="geometry" />
        </mxCell>
        <mxCell id="DfBPraIemsKcxIyx9plv-16" value="email" style="rounded=0;whiteSpace=wrap;html=1;" parent="1" vertex="1">
          <mxGeometry x="500" y="190" width="180" height="20" as="geometry" />
        </mxCell>
        <mxCell id="DfBPraIemsKcxIyx9plv-18" value="password" style="rounded=0;whiteSpace=wrap;html=1;" parent="1" vertex="1">
          <mxGeometry x="500" y="230" width="180" height="20" as="geometry" />
        </mxCell>
        <mxCell id="DfBPraIemsKcxIyx9plv-21" value="Login" style="rounded=1;whiteSpace=wrap;html=1;" parent="1" vertex="1">
          <mxGeometry x="534" y="265" width="120" height="20" as="geometry" />
        </mxCell>
        <mxCell id="DfBPraIemsKcxIyx9plv-22" value="Login" style="text;html=1;align=center;verticalAlign=middle;whiteSpace=wrap;rounded=0;" parent="1" vertex="1">
          <mxGeometry x="519.5" y="150" width="141" height="30" as="geometry" />
        </mxCell>
        <mxCell id="DfBPraIemsKcxIyx9plv-23" value="password" style="rounded=0;whiteSpace=wrap;html=1;" parent="1" vertex="1">
          <mxGeometry x="170" y="200" width="180" height="20" as="geometry" />
        </mxCell>
        <mxCell id="DfBPraIemsKcxIyx9plv-24" value="" style="rounded=0;whiteSpace=wrap;html=1;" parent="1" vertex="1">
          <mxGeometry x="140" y="380" width="240" height="250" as="geometry" />
        </mxCell>
        <mxCell id="DfBPraIemsKcxIyx9plv-25" value="&lt;b&gt;Bank&lt;/b&gt;" style="text;html=1;align=center;verticalAlign=middle;whiteSpace=wrap;rounded=0;" parent="1" vertex="1">
          <mxGeometry x="204" y="390" width="130" height="30" as="geometry" />
        </mxCell>
        <mxCell id="DfBPraIemsKcxIyx9plv-26" value="Account Info" style="text;html=1;align=center;verticalAlign=middle;whiteSpace=wrap;rounded=0;" parent="1" vertex="1">
          <mxGeometry x="193" y="420" width="141" height="30" as="geometry" />
        </mxCell>
        <mxCell id="DfBPraIemsKcxIyx9plv-27" value="" style="rounded=0;whiteSpace=wrap;html=1;" parent="1" vertex="1">
          <mxGeometry x="470" y="380" width="240" height="250" as="geometry" />
        </mxCell>
        <mxCell id="DfBPraIemsKcxIyx9plv-28" value="&lt;b&gt;Bank&lt;/b&gt;" style="text;html=1;align=center;verticalAlign=middle;whiteSpace=wrap;rounded=0;" parent="1" vertex="1">
          <mxGeometry x="529" y="390" width="130" height="30" as="geometry" />
        </mxCell>
        <mxCell id="DfBPraIemsKcxIyx9plv-29" value="User Info" style="text;html=1;align=center;verticalAlign=middle;whiteSpace=wrap;rounded=0;" parent="1" vertex="1">
          <mxGeometry x="523.5" y="420" width="141" height="30" as="geometry" />
        </mxCell>
        <mxCell id="DfBPraIemsKcxIyx9plv-30" value="" style="rounded=0;whiteSpace=wrap;html=1;" parent="1" vertex="1">
          <mxGeometry x="140" y="670" width="240" height="250" as="geometry" />
        </mxCell>
        <mxCell id="DfBPraIemsKcxIyx9plv-31" value="&lt;b&gt;Bank&lt;/b&gt;" style="text;html=1;align=center;verticalAlign=middle;whiteSpace=wrap;rounded=0;" parent="1" vertex="1">
          <mxGeometry x="199" y="680" width="130" height="30" as="geometry" />
        </mxCell>
        <mxCell id="DfBPraIemsKcxIyx9plv-32" value="Transfer" style="text;html=1;align=center;verticalAlign=middle;whiteSpace=wrap;rounded=0;" parent="1" vertex="1">
          <mxGeometry x="193.5" y="710" width="141" height="30" as="geometry" />
        </mxCell>
        <mxCell id="DfBPraIemsKcxIyx9plv-33" value="Try to make same page as edit functionality" style="text;html=1;align=center;verticalAlign=middle;whiteSpace=wrap;rounded=0;" parent="1" vertex="1">
          <mxGeometry x="720" y="450" width="180" height="40" as="geometry" />
        </mxCell>
        <mxCell id="DfBPraIemsKcxIyx9plv-34" value="To Acc no" style="rounded=0;whiteSpace=wrap;html=1;" parent="1" vertex="1">
          <mxGeometry x="183.5" y="750" width="156" height="20" as="geometry" />
        </mxCell>
        <mxCell id="DfBPraIemsKcxIyx9plv-35" value="Amount" style="rounded=0;whiteSpace=wrap;html=1;" parent="1" vertex="1">
          <mxGeometry x="182" y="785" width="156" height="20" as="geometry" />
        </mxCell>
        <mxCell id="DfBPraIemsKcxIyx9plv-37" value="Transfer" style="rounded=1;whiteSpace=wrap;html=1;" parent="1" vertex="1">
          <mxGeometry x="211" y="830" width="106" height="20" as="geometry" />
        </mxCell>
        <mxCell id="DfBPraIemsKcxIyx9plv-39" value="Balance" style="rounded=0;whiteSpace=wrap;html=1;" parent="1" vertex="1">
          <mxGeometry x="171.5" y="460" width="180" height="20" as="geometry" />
        </mxCell>
        <mxCell id="DfBPraIemsKcxIyx9plv-41" value="Add balance" style="rounded=0;whiteSpace=wrap;html=1;" parent="1" vertex="1">
          <mxGeometry x="174" y="495" width="180" height="20" as="geometry" />
        </mxCell>
        <mxCell id="DfBPraIemsKcxIyx9plv-42" value="Add Balance" style="rounded=1;whiteSpace=wrap;html=1;" parent="1" vertex="1">
          <mxGeometry x="209" y="530" width="120" height="20" as="geometry" />
        </mxCell>
        <mxCell id="DfBPraIemsKcxIyx9plv-52" value="firstname" style="rounded=0;whiteSpace=wrap;html=1;" parent="1" vertex="1">
          <mxGeometry x="500" y="450" width="80" height="20" as="geometry" />
        </mxCell>
        <mxCell id="DfBPraIemsKcxIyx9plv-53" value="email" style="rounded=0;whiteSpace=wrap;html=1;" parent="1" vertex="1">
          <mxGeometry x="500" y="510" width="180" height="20" as="geometry" />
        </mxCell>
        <mxCell id="DfBPraIemsKcxIyx9plv-54" value="lastname" style="rounded=0;whiteSpace=wrap;html=1;" parent="1" vertex="1">
          <mxGeometry x="600" y="450" width="80" height="20" as="geometry" />
        </mxCell>
        <mxCell id="DfBPraIemsKcxIyx9plv-55" value="number" style="rounded=0;whiteSpace=wrap;html=1;" parent="1" vertex="1">
          <mxGeometry x="500" y="540" width="180" height="20" as="geometry" />
        </mxCell>
        <mxCell id="DfBPraIemsKcxIyx9plv-56" value="password" style="rounded=0;whiteSpace=wrap;html=1;" parent="1" vertex="1">
          <mxGeometry x="500" y="480" width="180" height="20" as="geometry" />
        </mxCell>
        <mxCell id="DfBPraIemsKcxIyx9plv-57" value="Edit" style="rounded=1;whiteSpace=wrap;html=1;" parent="1" vertex="1">
          <mxGeometry x="520" y="575" width="60" height="15" as="geometry" />
        </mxCell>
        <mxCell id="DfBPraIemsKcxIyx9plv-58" value="Save" style="rounded=1;whiteSpace=wrap;html=1;" parent="1" vertex="1">
          <mxGeometry x="595" y="575" width="55" height="15" as="geometry" />
        </mxCell>
        <mxCell id="DfBPraIemsKcxIyx9plv-61" value="" style="endArrow=none;html=1;rounded=0;entryX=0.5;entryY=1;entryDx=0;entryDy=0;" parent="1" edge="1">
          <mxGeometry width="50" height="50" relative="1" as="geometry">
            <mxPoint x="570" y="610" as="sourcePoint" />
            <mxPoint x="600" y="560" as="targetPoint" />
          </mxGeometry>
        </mxCell>
        <mxCell id="WcBsXb5m2aepWkIxviSD-1" value="" style="rounded=0;whiteSpace=wrap;html=1;" vertex="1" parent="1">
          <mxGeometry x="500" y="1000" width="660" height="440" as="geometry" />
        </mxCell>
        <mxCell id="WcBsXb5m2aepWkIxviSD-2" value="Bank" style="text;html=1;align=center;verticalAlign=middle;whiteSpace=wrap;rounded=0;fontSize=34;fontStyle=1" vertex="1" parent="1">
          <mxGeometry x="710" y="1010" width="220" height="80" as="geometry" />
        </mxCell>
        <mxCell id="WcBsXb5m2aepWkIxviSD-3" value="" style="endArrow=none;html=1;rounded=0;entryX=1;entryY=0.25;entryDx=0;entryDy=0;" edge="1" parent="1">
          <mxGeometry width="50" height="50" relative="1" as="geometry">
            <mxPoint x="500" y="1100" as="sourcePoint" />
            <mxPoint x="1160" y="1100" as="targetPoint" />
          </mxGeometry>
        </mxCell>
        <mxCell id="WcBsXb5m2aepWkIxviSD-4" value="Home" style="text;html=1;align=center;verticalAlign=middle;whiteSpace=wrap;rounded=0;" vertex="1" parent="1">
          <mxGeometry x="980" y="1070" width="60" height="30" as="geometry" />
        </mxCell>
        <mxCell id="WcBsXb5m2aepWkIxviSD-5" value="Home" style="text;html=1;align=center;verticalAlign=middle;whiteSpace=wrap;rounded=0;" vertex="1" parent="1">
          <mxGeometry x="1090" y="1070" width="60" height="30" as="geometry" />
        </mxCell>
      </root>
    </mxGraphModel>
  </diagram>
</mxfile>
